<svg version="1.1" xmlns="http://www.w3.org/2000/svg" xmlns:xlink="http://www.w3.org/1999/xlink" width="450" height="450" viewBox="0,0,256,256"><g fill="#ffffff" fill-rule="nonzero" stroke="none" stroke-width="1" stroke-linecap="butt" stroke-linejoin="miter" stroke-miterlimit="10" stroke-dasharray="" stroke-dashoffset="0" font-family="none" font-weight="none" font-size="none" text-anchor="none" style="mix-blend-mode: normal"><g transform="scale(0.56889,0.56889)"><path d="M243.261,154.303c14.514,-22.857 25.663,-47.564 33.184,-73.4877c30.5,65.4227 96.83,110.8697 173.555,110.8697v66.63c-0.215,0 -0.429,0 -0.643,-0.001c-105.541,0 -191.411,85.995 -191.412,191.686h-66.534v-0.042c0,-96.512 53.126,-180.824 131.645,-225.151c-31.223,-17.753 -58.407,-41.84 -79.795,-70.504z"></path><path d="M173.245,368.177c-29.461,-62.567 -91.749,-106.709 -164.47797,-110.009c-2.91421,0.097 -5.83686,0.146 -8.76703,0.147l0.00011,-66.975c2.94129,0 5.87125,0.05 8.78909,0.148c47.8095,-2.152 92.4698,-21.832 126.5668,-55.938c36.178,-36.1885 56.013,-84.3701 56.013,-135.55l66.535,0c0,69.0034 -26.822,133.842 -75.558,182.649c-16.707,16.73 -35.294,30.881 -55.285,42.256c31.097,17.699 58.183,41.684 79.521,70.218c-14.316,22.431 -25.622,46.974 -33.337,73.054z"></path></g></g></svg>